# xmcd CD database file
#
# Track frame offsets:
#	150
#	10449
#	29647
#	40938
#	57339
#	76140
#	104271
#	117579
#	130092
#	150792
#	166546
#	182425
#
# Disc length: 2696 seconds
#
# Revision: 0
# Processed by: cddbd v1.5.2PL0 Copyright (c) Steve Scherf et al.
# Submitted via: CDex 1.51
#
DISCID=890a860c
DTITLE=Andy Wilkinson and Andy Hedges - Welcome To The Tribe
DYEAR=2009
DGENRE=Country
TTITLE0=Welcome To The Tribe
TTITLE1=Wild West Rambler
TTITLE2=The Dreary, Dreary Life
TTITLE3=Diamond Joe
TTITLE4=The Cowboy's Soliloquy
TTITLE5=Old Paint Medley - I Ride An Old Paint, The Horse With A Union Label, Goodbye Old Paint
TTITLE6=The Keepers Of The Code
TTITLE7=Palm-leaf Lid
TTITLE8=The Lost Lonesome High
TTITLE9=The Glitterbus
TTITLE10=Pop Reed
TTITLE11=The Great Escape
EXTD=YEAR: 2009
EXTT0=
EXTT1=
EXTT2=
EXTT3=
EXTT4=
EXTT5=
EXTT6=
EXTT7=
EXTT8=
EXTT9=
EXTT10=
EXTT11=
PLAYORDER=
